<svg width="20" height="20" viewBox="0 0 20 20" fill="none" xmlns="http://www.w3.org/2000/svg">
  <circle cx="10" cy="10" r="7.25" fill="#FFB72C" stroke="#7A5B2F" stroke-width="1.5"/>
  <circle cx="10" cy="10" r="4.55" fill="#FFE8A3" stroke="#B77B32" stroke-width="1.2"/>
  <path d="M10 6.45V13.55" stroke="#7A5B2F" stroke-width="1.35" stroke-linecap="round"/>
  <path d="M7.85 8.15C8.28 7.55 9.02 7.2 10 7.2C11.17 7.2 12 7.82 12 8.72C12 9.68 11.12 10.05 10 10.05C8.82 10.05 8 10.42 8 11.35C8 12.2 8.8 12.8 10 12.8C10.98 12.8 11.72 12.45 12.15 11.85" stroke="#7A5B2F" stroke-width="1.25" stroke-linecap="round" stroke-linejoin="round"/>
  <path d="M15.6 2.9L16.05 4.08L17.2 4.55L16.05 5.02L15.6 6.2L15.15 5.02L14 4.55L15.15 4.08L15.6 2.9Z" fill="#FFF8EA" stroke="#B77B32" stroke-width="0.9" stroke-linejoin="round"/>
</svg>
